<?xml version="1.0" standalone="yes"?>
<svg width="300" height="84">
<path style="fill:#fbfcfe; stroke:none;" d="M0 0L0 84L300 84L300 0L0 0z"/>
<path style="fill:#b6e5d5; stroke:none;" d="M22 3.52932C-6.79399 10.1742 -6.60086 70.3625 19 80.5208C25.427 83.071 33.2173 82 40 82L79 82L216 82L259 82C266.892 82 275.616 83.1385 283 79.8148C298.467 72.8526 298 58.5411 298 44C298 27.4417 299.078 8.77881 279 3.60957C270.141 1.3288 259.117 3 250 3L191 3L77 3C59.8271 3 38.7299 -0.331497 22 3.52932z"/>
<path style="fill:#ffffff; stroke:none;" d="M121 32L121 50L124 50L124 43C128.387 42.9874 141.124 39.0816 132.566 33.179C129.579 31.1186 124.441 32 121 32M162 33L162 36L152 37L152 50L155 50C155.022 43.8301 155.828 40.9578 162 39C162.001 44.6564 161.222 49.4719 168 50L166 33L162 33z"/>
<path style="fill:#b6e5d5; stroke:none;" d="M125 35L125 40C131.127 39.5229 131.127 35.4771 125 35z"/>
<path style="fill:#ffffff; stroke:none;" d="M137 41L145 39C137.124 47.1831 135.637 49.478 149 50C149 46.6719 149.739 42.1313 147.972 39.1481C144.843 33.8662 138.752 36.4209 137 41M169 36C171.173 43.9591 173.208 47.957 171 56C178.848 54.3296 180.966 43.0009 182 36C177.957 37.3098 177.366 39.9768 177 44L169 36z"/>
<path style="fill:#b6e5d5; stroke:none;" d="M140 45L140 47L141 48L145 44L140 45z"/>
</svg>
