<?xml version="1.0" standalone="yes"?>
<svg width="301" height="85">
<path style="fill:#f7f9fc; stroke:none;" d="M0 0L0 85L301 85L301 0L0 0z"/>
<path style="fill:#c2d9e6; stroke:none;" d="M22 3.52932C-6.65915 10.1431 -6.5242 70.3929 19 80.5208C25.427 83.071 33.2173 82 40 82L79 82L215 82L259 82C266.889 82 275.605 83.1768 283 79.956C308.404 68.8918 306.682 9.64629 278 3.51775C261.953 0.0888748 242.409 3 226 3L119 3L54 3C43.8774 3 31.8851 1.24809 22 3.52932z"/>
<path style="fill:#ffffff; stroke:none;" d="M90 44L90 46L79 44C80.3139 50.1553 90.9374 53.2136 93.338 45.9066C94.3336 42.876 78.4535 31.8088 89.3804 36.1397C90.6781 36.654 91.613 36.7866 93 37C89.285 24.4891 72.6296 35.8057 83.0571 41.6968C85.144 42.8757 87.7136 43.3494 90 44M135 32L135 35L138 35L138 32L135 32M217 32L217 50L221 50L221 32L217 32M127 33C125.134 38.3651 125.262 48.8756 132 50C130.728 45.9227 129.249 42.6541 132 39L132 38L132 37L130 33L127 33M195 33C192.919 38.9827 193.373 49.4057 201 50L199 33L195 33M108 46L99 44L108 44C107.249 37.3353 97.8815 32.3055 95.554 41.044C93.17 49.9948 103.277 51.6703 108 46M110 36L110 50L114 50C114.008 39.1711 118.992 39.1711 119 50L123 50C123 45.0729 123.312 31.9812 115 38L110 36M142 36L142 50L145 50C145.008 39.1711 149.992 39.1711 150 50L153 50C153.008 39.1711 157.992 39.1711 158 50L161 50C161 41.1156 156.929 30.1159 146 38L142 36M176 46L167 44L176 44C175.488 37.2264 166.501 32.2293 164.322 41.0193C162.299 49.1772 172.047 53.169 176 46M179 36L179 50L183 50C183.008 39.1711 187.992 39.1711 188 50L191 50C191 45.0164 191.34 31.8148 183 38L179 36M203 41L211 40C198.351 45.6477 203.96 49.6028 215 50C214.196 46.6225 214.935 41.2839 212.972 38.4336C209.748 33.7526 204.258 36.8545 203 41M135 37L135 50L138 50L138 37L135 37z"/>
<path style="fill:#cee0eb; stroke:none;" d="M99 42L104 42C102.228 39.3184 100.772 39.3184 99 42M167 42L173 42C171.002 39.0313 169.385 39.6316 167 42z"/>
<path style="fill:#c2d9e6; stroke:none;" d="M206 48L211 44L206 48z"/>
</svg>
