<?xml version="1.0" standalone="yes"?>
<svg width="210" height="100">
<path style="fill:#000000; stroke:none;" d="M0 0L0 100L210 100L210 0L0 0z"/>
<path style="fill:#100e0e; stroke:none;" d="M40.0147 12.4429C10.627 17.5065 0.719744 61.4082 28 76.5177C41.4227 83.9521 55.1446 83 70 83L130 83C142.688 83 157.672 85.1459 170 81.7261C205.48 71.8841 200.352 27.6245 171.576 13.919C161.147 8.95193 144.286 12 133 12C103.264 12 69.2936 7.39806 40.0147 12.4429z"/>
<path style="fill:#9a9ba5; stroke:none;" d="M41 14L41 15L47 15L41 14z"/>
<path style="fill:#caccd9; stroke:none;" d="M47 14.4244C37.8532 15.6289 30.8969 17.1027 24.1736 24.0903C9.38089 39.4646 13.7154 66.9796 33 76.6219C44.386 82.3149 60.6377 80 73 80L133 80C144.505 80 156.734 81.2303 168 78.571C197.344 71.6445 199.236 29.2045 173 17.0463C161.195 11.5755 144.659 14 132 14C104.315 14 74.4364 10.8114 47 14.4244z"/>
<path style="fill:#6b6b73; stroke:none;" d="M160 14L160 15L166 15L160 14z"/>
<path style="fill:#6c6b73; stroke:none;" d="M175 18L176 19L175 18z"/>
<path style="fill:#77777f; stroke:none;" d="M28 20L29 21L28 20z"/>
<path style="fill:#ffffff; stroke:none;" d="M42 20.4792C15.8985 25.8263 14.8352 62.3575 38 72.2708C48.1712 76.6236 63.1085 74 74 74L135 74C145.636 74 157.78 75.6474 168 72.25C191.514 64.4332 191.533 29.5731 168 21.75C155.046 17.4435 138.522 20 125 20L70 20C61.0167 20 50.8219 18.6719 42 20.4792z"/>
<path style="fill:#6c6b73; stroke:none;" d="M178 20L179 21L178 20z"/>
<path style="fill:#787880; stroke:none;" d="M21 27L22 28L21 27z"/>
<path style="fill:#6c6c73; stroke:none;" d="M185 27L186 28L185 27z"/>
<path style="fill:#a6a8bb; stroke:none;" d="M53 37L53 54L55 54L55 37L53 37z"/>
<path style="fill:#e3e4ea; stroke:none;" d="M55 37L53 54L53 55C57.7972 53.972 57.0831 40.6155 55 37z"/>
<path style="fill:#a6a8bb; stroke:none;" d="M70 37L70 45L72 45L72 37L70 37z"/>
<path style="fill:#e1e2e8; stroke:none;" d="M72 37C71.9059 44.9416 68.3556 45.9789 61 46L61 47L72 47L72 51L63 51L63 53L73 53L72 37z"/>
<path style="fill:#d2d3dd; stroke:none;" d="M87 37L85 41L85 42C88.0124 41.3545 88.498 39.6128 87 37z"/>
<path style="fill:#b6b7c6; stroke:none;" d="M88 37L85 42L87 50L90 50L90 37L88 37z"/>
<path style="fill:#b2b3c3; stroke:none;" d="M97 37L97 39L104 39L104 37L97 37z"/>
<path style="fill:#e2e3e9; stroke:none;" d="M124 37L124 54L125 54L124 37z"/>
<path style="fill:#a6a8bb; stroke:none;" d="M125 37L125 54L127 54L127 46L129 46L129 54L130 54L130 37L128 37L128 44L127 44L127 37L125 37z"/>
<path style="fill:#d1d2dc; stroke:none;" d="M130 37L130 54L129 54L129 46L128 46L128 55L131 55L130 37z"/>
<path style="fill:#a6a8bb; stroke:none;" d="M137 37L133 46L143 45L137 37M145 37L142 41L145 42L145 46L147 46L147 37L145 37M162 37L160 41L160 42L160 43L162 47L164 47L164 37L162 37z"/>
<path style="fill:#d0d1db; stroke:none;" d="M41 38L41 50L42 50L44 39L41 38M47 38L44 42L44 43L48 43L47 38z"/>
<path style="fill:#a6a8bb; stroke:none;" d="M48 38L48 43L44 43L44 39L42 39L42 50L50 50L50 38L48 38M59 38L59 45L67 45L67 38L59 38M76 38L76 47L84 47L84 38L82 41L76 38M150 38L150 40L154 40L150 46L155 43L160 46L160 38L150 38z"/>
<path style="fill:#d6d6e0; stroke:none;" d="M61 39L61 40L65 40L61 39z"/>
<path style="fill:#a6a8bb; stroke:none;" d="M116 39L119 41L115 50L116 51L119 47L123 50L123 39L116 39z"/>
<path style="fill:#9c9ca6; stroke:none;" d="M15 40L15 46L16 46L15 40z"/>
<path style="fill:#ffffff; stroke:none;" d="M61 40L61 43L65 43L65 40L61 40z"/>
<path style="fill:#bdbecc; stroke:none;" d="M94 40L94 42L108 42L108 40L94 40z"/>
<path style="fill:#9c9ca6; stroke:none;" d="M191 40L191 46L192 46L191 40z"/>
<path style="fill:#ffffff; stroke:none;" d="M121 41L123 48L124 48L124 41L121 41z"/>
<path style="fill:#f5f5f7; stroke:none;" d="M78 42L78 45L82 45L82 42L78 42z"/>
<path style="fill:#a6a8bb; stroke:none;" d="M99 51L93 51L93 52L109 52L109 51L102 51C109.604 40.3892 91.2642 40.9382 99 51z"/>
<path style="fill:#e3e4ea; stroke:none;" d="M145 50L145 48L136 48L136 47L147 47C135.963 41.5228 131.951 49.9899 145 50z"/>
<path style="fill:#ffffff; stroke:none;" d="M98 44L98 47L104 46L98 44M44 45L44 48L47 48L47 45L44 45z"/>
<path style="fill:#a6a8bb; stroke:none;" d="M61 47L61 48L70 48L70 50L61 50L61 54L73 54L73 53L63 53L63 51L72 51L72 47L61 47M136 47L136 48L145 48L145 50L136 50L136 54L148 54L148 53L138 53L138 51L147 51L147 47L136 47z"/>
<path style="fill:#dfe0e7; stroke:none;" d="M61 48L61 50L70 50L70 48L61 48z"/>
<path style="fill:#a6a8bb; stroke:none;" d="M78 48L78 54L90 54L90 52L81 52L81 48L78 48M154.377 49.0231C149.577 52.5076 159.638 55.1444 162.623 52.9769C167.423 49.4924 157.362 46.8555 154.377 49.0231z"/>
<path style="fill:#ffffff; stroke:none;" d="M155 50L155 52L162 52L162 50L155 50z"/>
<path style="fill:#6d6e73; stroke:none;" d="M15 51L15 54L16 54L15 51z"/>
<path style="fill:#d8d8e1; stroke:none;" d="M138 51L138 53L148 53L138 51z"/>
<path style="fill:#6d6e73; stroke:none;" d="M191 51L191 54L192 54L191 51z"/>
<path style="fill:#d4d6de; stroke:none;" d="M93 52L93 53L109 53L93 52z"/>
<path style="fill:#dadbe3; stroke:none;" d="M61 54L61 55L73 55L61 54z"/>
<path style="fill:#d8d8e1; stroke:none;" d="M136 54L136 55L148 55L136 54z"/>
<path style="fill:#d7d7e1; stroke:none;" d="M156 54L156 55L161 55L156 54z"/>
<path style="fill:#6e6e75; stroke:none;" d="M185 66L186 67L185 66M178 73L179 74L178 73z"/>
<path style="fill:#9d9da7; stroke:none;" d="M41 79L41 80L47 80L41 79z"/>
<path style="fill:#6e6e75; stroke:none;" d="M163 79L163 80L166 80L163 79z"/>
</svg>
