<?xml version="1.0" standalone="yes"?>
<svg width="273" height="83">
<path style="fill:#fdfefe; stroke:none;" d="M0 0L0 83L273 83L273 0L0 0z"/>
<path style="fill:#f3e3e4; stroke:none;" d="M21 2L21 3L251 3L230 2L183 2L21 2z"/>
<path style="fill:#e5c6c7; stroke:none;" d="M17 3.64892C11.1323 5.41891 6.05205 10.4923 3.55787 16C0.973592 21.7067 2 28.8956 2 35C2 49.8726 -1.57381 71.3189 16 78.0054C30.7757 83.6273 55.2014 79 71 79L196 79L237 79C243.851 79 251.624 79.9852 258 76.9498C273.721 69.4654 271 50.3084 271 36C271 29.1994 271.674 22.3139 268.672 16C265.961 10.2977 261.138 5.70877 255 3.93904C239.081 -0.650909 217.535 3 201 3L88 3L40 3C32.8492 3 23.8915 1.5701 17 3.64892z"/>
<path style="fill:#ffffff; stroke:none;" d="M125 41C122.741 41.5527 119.464 43.4803 117.148 42.6736C113.575 41.4288 113.575 35.5712 117.148 34.3264C119.464 33.5197 122.741 35.4473 125 36C122.551 27.5563 110.464 28.9103 110.308 38.0008C110.145 47.4771 122.291 50.3395 125 41M130.228 35.0432C123.233 39.0546 129.382 50.7159 136.566 45.8202C142.287 41.9222 136.677 31.3455 130.228 35.0432M141 35L141 37L147 37L141 47L152 47L152 44L146 44L151 35L141 35M153 35L157 49L154 49L154 52C161.225 50.8215 162.564 41.2051 164 35C160.029 36.3052 159.543 39.0812 159 43L153 35z"/>
<path style="fill:#e5c6c7; stroke:none;" d="M131.589 38.0864C128.937 40.0005 131.513 45.6365 134.411 43.2492C136.899 41.2003 134.695 35.8443 131.589 38.0864z"/>
<path style="fill:#f0e1e2; stroke:none;" d="M21 79L21 80L251 80L230 79L183 79L21 79z"/>
</svg>
