<?xml version="1.0" standalone="yes"?>
<svg width="301" height="88">
<path style="fill:#fdfeff; stroke:none;" d="M0 0L0 88L301 88L301 0L0 0z"/>
<path style="fill:#e4e1ec; stroke:none;" d="M24 2L24 3L277 3L254 2L202 2L24 2z"/>
<path style="fill:#c8c5d9; stroke:none;" d="M20 3.63812C-0.575897 9.55209 2 32.355 2 49C2 56.7798 1.4169 64.6483 4.47839 72C6.95598 77.9495 12.0111 83.078 18 85.517C24.3792 88.1148 32.2516 87 39 87L78 87L217 87L261 87C268.407 87 277.109 88.2253 284 84.9498C302.128 76.3328 298 54.423 298 38C298 31.6511 299.177 23.9615 296.633 18C293.756 11.2563 288.081 5.96918 281 3.93904C263.932 -0.954544 240.73 3 223 3L99 3L46 3C37.9098 3 27.8143 1.39214 20 3.63812z"/>
<path style="fill:#e0deea; stroke:none;" d="M298 24L298 66L299 66C299 54.0427 302.611 34.9878 298 24z"/>
<path style="fill:#ffffff; stroke:none;" d="M121 45L121 49L110 46C113.91 59.4793 132.17 46.2458 119.985 41.6343C118.049 40.9013 116.011 40.4612 114 40C116.584 35.4902 119.783 37.9681 124 39C120.012 25.5704 102.779 39.7816 115.991 44.196C117.64 44.7469 119.287 44.8493 121 45M128 34L128 52L131 52L131 34L128 34M146 48L138 49L138 46L147 46C145.433 38.3022 134.422 34.8459 134.167 45C133.982 52.3875 142.755 53.884 146 48M161 48L152 46L161 46C160.249 39.3353 150.882 34.3055 148.554 43.044C146.17 51.9948 156.277 53.6703 161 48M163 38L163 58L167 58L167 51C173.586 52.8742 179.624 46.4712 174.397 40.321C171.827 37.2986 166.559 38.1284 163 38M178 38L183 54L180 58C187.638 55.7907 189.391 44.9564 191 38L187 38L185 47C183.205 42.8391 182.962 38.861 178 38z"/>
<path style="fill:#d2d0e0; stroke:none;" d="M138 44L143 44C141.228 41.3184 139.772 41.3184 138 44M152 44L157 44C155.228 41.3184 153.772 41.3185 152 44z"/>
<path style="fill:#c8c5d9; stroke:none;" d="M168.585 42.1759C165.676 43.8911 168.089 50.2663 171.272 47.9136C173.784 46.0577 171.7 40.3393 168.585 42.1759z"/>
</svg>
