<?xml version="1.0" standalone="yes"?>
<svg width="30" height="25">
<path style="fill:#000000; stroke:none;" d="M0 0L0 7L13 0L0 0z"/>
<path style="fill:#f5d460; stroke:none;" d="M16 21L16 15L23 19C24.9975 13.5194 24.7463 -3.6983 17 7L16 0C-2.29621 4.7558 -3.33893 17.2603 16 21z"/>
<path style="fill:#000000; stroke:none;" d="M16 0L17 7C25.8539 -2.00507 24.4684 13.4499 23 19L16 15L16 21L0 15L0 25L30 25L30 0L16 0M12 5C7.33618 9.49154 7.36625 13.478 13 17L12 5M4 9L4 13L5 13L4 9M16.3333 10.6667L16.6667 11.3333L16.3333 10.6667z"/>
</svg>
