<?xml version="1.0" standalone="yes"?>
<svg width="410" height="360">
<path style="fill:#000000; stroke:none;" d="M0 0L0 10C14.0574 10 28.0249 11.9707 42 11.9707C56.3507 11.9707 70.4933 9.40408 85 10.0394C97.2105 10.5741 109.795 13.2306 122 12.8704C141.659 12.2902 159.665 5.2019 180 7.16977C194.08 8.53232 207.945 12.9783 221 18.1998C228.487 21.1943 238.905 26.8729 247 27.0926C252.899 27.2526 259.57 23.0442 265 21.0532C278.206 16.2112 291.211 10.6473 305 7.66205C328.201 2.63916 348.117 7.47333 371 9.47147C384.227 10.6264 396.478 7.21051 410 10L410 0L0 0z"/>
<path style="fill:#ffffff; stroke:none;" d="M125 12L125 13L127 13L127 14L0 10L0 360L410 360L410 10C395.992 8.22974 383.901 8.30426 370 11C369.416 7.42432 360.347 7.1608 357 6.59259C342.88 4.19571 327.17 3.75616 313 6.07407C296.45 8.78137 281.745 14.9136 266 20.338C260.292 22.3044 253.499 26.7387 247.412 26.9722C242.76 27.1507 236.417 23.4945 232 22C219.231 17.6796 207.247 12.3303 194 9.41205C170.111 4.14957 148.576 9.121 125 12z"/>
<path style="fill:#565656; stroke:none;" d="M380 8L380 9L383 9L380 8z"/>
<path style="fill:#b0b0b0; stroke:none;" d="M383 8L383 9L386 9L383 8z"/>
<path style="fill:#8d8d8d; stroke:none;" d="M396 8L396 9L402 9L396 8z"/>
<path style="fill:#343434; stroke:none;" d="M402.667 8.33334L403.333 8.66666L402.667 8.33334z"/>
<path style="fill:#646464; stroke:none;" d="M374.667 9.33334L375.333 9.66666L374.667 9.33334z"/>
<path style="fill:#c3c3c3; stroke:none;" d="M376.667 9.33334L377.333 9.66666L376.667 9.33334z"/>
<path style="fill:#8c8c8c; stroke:none;" d="M406.667 9.33334L407.333 9.66666L406.667 9.33334z"/>
<path style="fill:#464646; stroke:none;" d="M56 10L56 11L64 11L56 10z"/>
<path style="fill:#808080; stroke:none;" d="M64 10L64 11L74 11L64 10z"/>
<path style="fill:#404040; stroke:none;" d="M74 10L74 11L90 11L74 10z"/>
<path style="fill:#ababab; stroke:none;" d="M370 10L370 11L373 11L370 10z"/>
<path style="fill:#5d5d5d; stroke:none;" d="M47 11L47 12L50 12L47 11z"/>
<path style="fill:#9d9d9d; stroke:none;" d="M97 11L97 12L105 12L97 11z"/>
<path style="fill:#a7a7a7; stroke:none;" d="M366 11L366 12L369 12L366 11z"/>
<path style="fill:#8a8a8a; stroke:none;" d="M41 12L41 13L44 13L41 12z"/>
<path style="fill:#a6a6a6; stroke:none;" d="M110 12L110 13L115 13L110 12z"/>
<path style="fill:#646464; stroke:none;" d="M115 12L115 13L118 13L115 12z"/>
<path style="fill:#b8b8b8; stroke:none;" d="M363.667 12.3333L364.333 12.6667L363.667 12.3333z"/>
<path style="fill:#a4a4a4; stroke:none;" d="M36 13L36 14L39 14L36 13z"/>
<path style="fill:#aaaaaa; stroke:none;" d="M121.667 13.3333L122.333 13.6667L121.667 13.3333z"/>
<path style="fill:#656565; stroke:none;" d="M123 13L123 14L127 14L123 13z"/>
<path style="fill:#a8a8a8; stroke:none;" d="M360.667 13.3333L361.333 13.6667L360.667 13.3333z"/>
<path style="fill:#a7a7a7; stroke:none;" d="M32 14L32 15L35 15L32 14z"/>
<path style="fill:#b4b4b4; stroke:none;" d="M128.667 14.3333L129.333 14.6667L128.667 14.3333z"/>
<path style="fill:#7a7a7a; stroke:none;" d="M130 14L130 15L133 15L130 14z"/>
<path style="fill:#a6a6a6; stroke:none;" d="M357.667 14.3333L358.333 14.6667L357.667 14.3333z"/>
<path style="fill:#a1a1a1; stroke:none;" d="M28 15L28 16L31 16L28 15z"/>
<path style="fill:#919191; stroke:none;" d="M134 15L134 16L137 16L134 15z"/>
<path style="fill:#c4c4c4; stroke:none;" d="M355.667 15.3333L356.333 15.6667L355.667 15.3333z"/>
<path style="fill:#a4a4a4; stroke:none;" d="M25.6667 16.3333L26.3333 16.6667L25.6667 16.3333z"/>
<path style="fill:#7a7a7a; stroke:none;" d="M139.667 16.3333L140.333 16.6667L139.667 16.3333z"/>
<path style="fill:#a5a5a5; stroke:none;" d="M352.667 16.3333L353.333 16.6667L352.667 16.3333M22.6667 17.3333L23.3333 17.6667L22.6667 17.3333z"/>
<path style="fill:#858585; stroke:none;" d="M142 17L142 18L145 18L142 17z"/>
<path style="fill:#b9b9b9; stroke:none;" d="M350.667 17.3333L351.333 17.6667L350.667 17.3333z"/>
<path style="fill:#a3a3a3; stroke:none;" d="M19.6667 18.3333L20.3333 18.6667L19.6667 18.3333z"/>
<path style="fill:#838383; stroke:none;" d="M146.667 18.3333L147.333 18.6667L146.667 18.3333z"/>
<path style="fill:#c1c1c1; stroke:none;" d="M348.667 18.3333L349.333 18.6667L348.667 18.3333z"/>
<path style="fill:#c4c4c4; stroke:none;" d="M17.6667 19.3333L18.3333 19.6667L17.6667 19.3333z"/>
<path style="fill:#858585; stroke:none;" d="M149.667 19.3333L150.333 19.6667L149.667 19.3333z"/>
<path style="fill:#b0b0b0; stroke:none;" d="M345.667 19.3333L346.333 19.6667L345.667 19.3333z"/>
<path style="fill:#afafaf; stroke:none;" d="M14.6667 20.3333L15.3333 20.6667L14.6667 20.3333z"/>
<path style="fill:#aeaeae; stroke:none;" d="M152.667 20.3333L153.333 20.6667L152.667 20.3333z"/>
<path style="fill:#c1c1c1; stroke:none;" d="M343.667 20.3333L344.333 20.6667L343.667 20.3333z"/>
<path style="fill:#c6c6c6; stroke:none;" d="M12.6667 21.3333L13.3333 21.6667L12.6667 21.3333z"/>
<path style="fill:#7a7a7a; stroke:none;" d="M154.667 21.3333L155.333 21.6667L154.667 21.3333z"/>
<path style="fill:#bebebe; stroke:none;" d="M340.667 21.3333L341.333 21.6667L340.667 21.3333z"/>
<path style="fill:#969696; stroke:none;" d="M157.667 22.3333L158.333 22.6667L157.667 22.3333z"/>
<path style="fill:#b7b7b7; stroke:none;" d="M337.667 22.3333L338.333 22.6667L337.667 22.3333z"/>
<path style="fill:#7a7a7a; stroke:none;" d="M159.667 23.3333L160.333 23.6667L159.667 23.3333z"/>
<path style="fill:#b4b4b4; stroke:none;" d="M162.667 24.3333L163.333 24.6667L162.667 24.3333z"/>
<path style="fill:#b0b0b0; stroke:none;" d="M332.667 24.3333L333.333 24.6667L332.667 24.3333z"/>
<path style="fill:#c7c7c7; stroke:none;" d="M4.66667 25.3333L5.33333 25.6667L4.66667 25.3333z"/>
<path style="fill:#838383; stroke:none;" d="M164.667 25.3333L165.333 25.6667L164.667 25.3333z"/>
<path style="fill:#bababa; stroke:none;" d="M330.667 25.3333L331.333 25.6667L330.667 25.3333z"/>
<path style="fill:#7c7c7c; stroke:none;" d="M167 26L168 27L167 26z"/>
<path style="fill:#c9c9c9; stroke:none;" d="M328.667 26.3333L329.333 26.6667L328.667 26.3333z"/>
<path style="fill:#a4a4a4; stroke:none;" d="M169.667 27.3333L170.333 27.6667L169.667 27.3333z"/>
<path style="fill:#7b7b7b; stroke:none;" d="M171.667 28.3333L172.333 28.6667L171.667 28.3333z"/>
<path style="fill:#909090; stroke:none;" d="M174.667 29.3333L175.333 29.6667L174.667 29.3333z"/>
<path style="fill:#a7a7a7; stroke:none;" d="M321.667 29.3333L322.333 29.6667L321.667 29.3333z"/>
<path style="fill:#b1b1b1; stroke:none;" d="M177.667 30.3333L178.333 30.6667L177.667 30.3333z"/>
<path style="fill:#bbbbbb; stroke:none;" d="M319.667 30.3333L320.333 30.6667L319.667 30.3333z"/>
<path style="fill:#7c7c7c; stroke:none;" d="M179.667 31.3333L180.333 31.6667L179.667 31.3333z"/>
<path style="fill:#7a7a7a; stroke:none;" d="M182.667 32.3333L183.333 32.6667L182.667 32.3333z"/>
<path style="fill:#b9b9b9; stroke:none;" d="M314.667 32.3333L315.333 32.6667L314.667 32.3333z"/>
<path style="fill:#7f7f7f; stroke:none;" d="M185 33L185 34L188 34L185 33z"/>
<path style="fill:#a6a6a6; stroke:none;" d="M311.667 33.3333L312.333 33.6667L311.667 33.3333z"/>
<path style="fill:#7c7c7c; stroke:none;" d="M189.667 34.3333L190.333 34.6667L189.667 34.3333z"/>
<path style="fill:#cacaca; stroke:none;" d="M309.667 34.3333L310.333 34.6667L309.667 34.3333z"/>
<path style="fill:#898989; stroke:none;" d="M192 35L192 36L195 36L192 35z"/>
<path style="fill:#b9b9b9; stroke:none;" d="M306.667 35.3333L307.333 35.6667L306.667 35.3333z"/>
<path style="fill:#909090; stroke:none;" d="M196 36L196 37L200 37L196 36z"/>
<path style="fill:#b2b2b2; stroke:none;" d="M303.667 36.3333L304.333 36.6667L303.667 36.3333z"/>
<path style="fill:#7b7b7b; stroke:none;" d="M201 37L201 38L206 38L201 37z"/>
<path style="fill:#a2a2a2; stroke:none;" d="M299 37L299 38L302 38L299 37z"/>
<path style="fill:#a5a5a5; stroke:none;" d="M207 38L207 39L211 39L207 38z"/>
<path style="fill:#a2a2a2; stroke:none;" d="M295 38L295 39L298 39L295 38z"/>
<path style="fill:#b0b0b0; stroke:none;" d="M213 39L213 40L218 40L213 39z"/>
<path style="fill:#a6a6a6; stroke:none;" d="M291 39L291 40L294 40L291 39z"/>
<path style="fill:#a9a9a9; stroke:none;" d="M219 40L219 41L227 41L219 40z"/>
<path style="fill:#b0b0b0; stroke:none;" d="M285 40L285 41L290 41L285 40z"/>
<path style="fill:#a8a8a8; stroke:none;" d="M229 41L229 42L237 42L229 41z"/>
<path style="fill:#a9a9a9; stroke:none;" d="M278 41L278 42L284 42L278 41z"/>
<path style="fill:#aaaaaa; stroke:none;" d="M239 42L239 43L266 43L239 42z"/>
<path style="fill:#c8c8c8; stroke:none;" d="M266 42L266 43L276 43L266 42z"/>
</svg>
