<?xml version="1.0" standalone="yes"?>
<svg width="182" height="175">
<path style="fill:#d3d8db; stroke:none;" d="M0 0L0 175L182 175L182 147C171.736 151.558 161.055 153.531 150 150.51C143.635 148.771 136.938 143.286 130.044 144.269C121.679 145.46 127.285 158.953 117.985 161.566C110.566 163.651 100.682 162 93 162L39 162C32.0032 162 18.6625 164.608 13.5725 158.772C8.78288 153.279 11 141.79 11 135L11 73L11 28C11 22.6824 9.5426 14.7077 12.7423 10.1088C17.2585 3.61765 29.1604 6 36 6L100 6C107.135 6 119.766 3.44069 123.821 11.044C128.517 19.8475 125 38.118 125 48L125 141C143.599 137.547 161.664 158.053 179.682 143.775C185.792 138.934 182 115.428 182 108L182 0L0 0z"/>
<path style="fill:#ffffff; stroke:none;" d="M182 143C175.111 145.296 167.461 149.662 160 148.696C147.141 147.032 138.742 137.728 125 141L125 45C125 36.2428 128.678 16.4013 123.258 9.22839C119.066 3.68141 107.105 6 101 6L36 6C29.5054 6 15.9809 3.3548 12.179 10.1088C7.0687 19.1872 11 39.6622 11 50C11 83.7264 6.73249 120.592 11.1335 153.999C12.5843 165.012 27.0221 162 35 162L92 162C100.228 162 111.033 163.85 118.96 161.566C127.856 159.003 121.658 145.001 131.015 144.413C136.547 144.065 141.979 148.163 147 149.899C154.102 152.354 162.643 152.819 170 151.335C175.607 150.204 180.973 149.344 182 143z"/>
<path style="fill:#d9d9d9; stroke:none;" d="M21.1451 14.0718C15.7053 16.9605 20.6183 24.9411 25.5656 21.8017C30.1081 18.9192 26.0877 11.4471 21.1451 14.0718M112.145 14.0718C106.705 16.9605 111.618 24.9411 116.566 21.8017C121.108 18.9192 117.088 11.4471 112.145 14.0718z"/>
<path style="fill:#ffffff; stroke:none;" d="M21.6034 16.0818C19.1317 17.8717 21.9181 21.713 24.3966 19.9182C26.8683 18.1283 24.0819 14.287 21.6034 16.0818M112.603 16.0818C110.132 17.8717 112.918 21.713 115.397 19.9182C117.868 18.1283 115.082 14.287 112.603 16.0818z"/>
<path style="fill:#e5edf8; stroke:none;" d="M63 23.5293C32.6448 30.4975 43.4405 74.5322 73 68.6211C104.787 62.2645 93.5351 16.5199 63 23.5293z"/>
<path style="fill:#ffffff; stroke:none;" d="M64 33.6528C45.9816 39.2753 56.3979 63.3972 73 58.196C91.0097 52.5538 80.5084 28.5014 64 33.6528z"/>
<path style="fill:#e5edf8; stroke:none;" d="M61 88.5177C17.9477 97.7029 32.563 162.761 75 154.624C119.431 146.105 104.695 79.1955 61 88.5177z"/>
<path style="fill:#ffffff; stroke:none;" d="M63 99.4684C32.2488 105.369 43.2898 151.562 73 145.621C104.891 139.244 93.9963 93.5211 63 99.4684z"/>
<path style="fill:#d9d9d9; stroke:none;" d="M21.1451 148.072C15.7053 150.96 20.6183 158.941 25.5656 155.802C30.1081 152.919 26.0877 145.447 21.1451 148.072M109 154L111 154C112.075 150.479 113.339 149.68 117 150C113.595 144.832 109.689 149.588 109 154z"/>
<path style="fill:#ffffff; stroke:none;" d="M21.6034 150.082C19.1317 151.872 21.9181 155.713 24.3966 153.918C26.8683 152.128 24.0819 148.287 21.6034 150.082z"/>
</svg>
