<?xml version="1.0" standalone="yes"?>
<svg width="512" height="512">
<path style="fill:#000000; stroke:none;" d="M0 0L0 234L1 234C1.06015 143.174 72.7504 57.4208 152 21.6944C176.983 10.4317 206.34 1.01822 234 1L212 0L165 0L0 0z"/>
<path style="fill:#c1c5d2; stroke:none;" d="M58 420L59 420C61.1782 405.195 68.1009 390.272 74.7531 377C98.0721 330.476 145.04 286.026 197 274C191.489 267.23 183.603 262.277 177.59 255.83C167.281 244.775 159.941 231.332 155.344 217C150.349 201.426 148.668 184.091 151.576 168C154.439 152.154 160.598 137.039 170.155 124C189.286 97.902 220.239 79.9378 253 79.1288C319.477 77.4873 376.161 143.562 358.985 209C354.529 225.978 347.053 241.765 335.246 254.91C329.063 261.796 320.777 266.903 315 274C378.045 294.514 442.827 350.855 453 420C472.175 403.243 485.304 374.239 494.6 351C530.255 261.867 511.623 153.548 445.91 83C351.028 -18.8655 191.3 -27.5412 86 63.4252C65.3159 81.2937 47.4493 103.311 33.8503 127C8.90423 170.454 0 216.463 0 266C0 323.293 24.5947 374.929 58 420z"/>
<path style="fill:#000000; stroke:none;" d="M278 0L278 1C368.826 1.05988 454.579 72.7506 490.306 152C501.568 176.983 510.982 206.34 511 234L512 234L512 0L278 0z"/>
<path style="fill:#9a9eb0; stroke:none;" d="M197 274C183.323 276.02 168.881 283.782 157 290.579C122.875 310.099 93.6785 338.745 75.7562 374C70.3579 384.619 65.5687 395.61 62.0255 407C60.7317 411.159 58.163 416.722 60.0031 421C65.7217 434.296 83.9667 447.29 95 456.195C135.559 488.931 184.439 506.923 236 511.83C297.167 517.651 361.122 498.281 410 461.625C423.228 451.705 445.308 436.553 451.997 421C453.837 416.722 451.268 411.159 449.975 407C446.431 395.61 441.642 384.619 436.244 374C412.809 327.901 366.323 285.873 315 274C331.576 259.656 346.079 245.935 354.189 225C360.456 208.824 364.427 188.291 361.196 171C357.866 153.177 352.095 136.678 341.105 122C332.626 110.677 322.23 101.171 310 94.0116C244.413 55.6179 157.789 98.8068 150.171 175C148.669 190.02 151.444 206.837 156.344 221C164.229 243.788 179.209 258.604 197 274z"/>
<path style="fill:#000000; stroke:none;" d="M0 278L0 512L234 512L234 511C146.766 510.942 59.5029 442.648 24.3086 366C15.5755 346.981 9.02703 327.469 4.66127 307C2.7424 298.003 3.48414 286.3 0 278M511 278C510.982 305.66 501.568 335.017 490.306 360C454.579 439.25 368.826 510.94 278 511L278 512L512 512L512 347L512 300L511 278z"/>
</svg>
