<?xml version="1.0" standalone="yes"?>
<svg width="18" height="25">
<path style="fill:#000000; stroke:none;" d="M0 0L0 5L1 5L5 1L0 0z"/>
<path style="fill:#91bdd8; stroke:none;" d="M5.04398 0.742283C-4.20199 4.48976 2.25933 25.5171 9.89583 23.1489C20.4139 19.8871 19.8762 -5.26934 5.04398 0.742283z"/>
<path style="fill:#000000; stroke:none;" d="M13 0L17 7L18 7L18 0L13 0M6 16L7 16L6 8L9 10L12 8L10 16C11.5682 14.7569 12.9207 13.7976 13.8418 11.9414C19.4434 0.65379 -0.723297 -0.0654507 2.88349 10.9059C3.48907 12.748 4.93371 14.4081 6 16M17 10C15.8576 13.707 12.2747 26.1654 6.31636 22.1489C3.34562 20.1464 2.96912 15.4708 0 13L0 25L18 25L17 10M6 18C7.77222 20.6816 9.22779 20.6816 11 18L6 18z"/>
</svg>
