<?xml version="1.0" standalone="yes"?>
<svg width="18" height="30">
<path style="fill:#000000; stroke:none;" d="M0 0L0 9C6.6783 4.78236 13.7642 2.71165 17 12L18 12L18 0L13 0L13 4L11 4L11 0L10 0L4 4L4 0L0 0z"/>
<path style="fill:#f5d460; stroke:none;" d="M4 0L4 4L10 0L7 2L6 2L4 0z"/>
<path style="fill:#000000; stroke:none;" d="M6.33333 0.666666L6.66667 1.33333L6.33333 0.666666z"/>
<path style="fill:#f5d460; stroke:none;" d="M11 0L11 4L13 4L13 0L11 0M8 4.78395C-4.98272 5.68304 0.623001 28.8618 8.97531 28.2222C18.0005 27.5311 22.0948 3.80785 8 4.78395z"/>
<path style="fill:#000000; stroke:none;" d="M6 21L7 21L6 13L8 15L9 15L12 13L10 21C11.2499 19.9783 12.4886 19.0476 13.3719 17.6559C20.4723 6.46875 -0.0353506 4.06327 2.78241 14.9954C3.33176 17.1267 4.89278 19.1326 6 21M17 15C15.775 18.8112 12.2814 30.8728 6.31636 27.0332C3.36373 25.1326 2.91136 20.4228 0 18L0 30L18 30L17 15M6 23C7.77222 25.6816 9.22779 25.6816 11 23L6 23z"/>
</svg>
