<?xml version="1.0" standalone="yes"?>
<svg width="576" height="540">
<path style="fill:#000000; stroke:none;" d="M0 0L0 540L576 540L576 0L0 0z"/>
<path style="fill:#e3e1e2; stroke:none;" d="M121 349C141.119 342.456 159.358 339.15 179 349.323C205.679 363.142 225.94 403.146 200 428C245.236 448.052 304.248 434.301 351 428C330.949 394.54 342.373 349.998 383 338.595C402.155 333.219 419.926 338.896 438 345C444.863 319.072 444.902 291.258 439.485 265C437.081 253.344 431.028 241.775 430 230C425.674 227.499 414.841 208.347 416.443 203.213C417.6 199.507 423.984 197.853 426.467 194.895C433.962 185.965 429.675 173.169 420 168.277C414.844 165.67 409.55 164.346 404 166.468C400.841 167.677 396.501 171.832 393 170.809C385.836 168.715 377.866 157.739 372.29 152.796C363.962 145.413 353.312 140.75 343 136.951C301.086 121.508 250.729 122.026 210 140.801C197.239 146.683 186.775 160.534 174 164.955C170.238 166.257 167.009 162.193 164 160.558C157.661 157.112 149.789 157.029 144.015 161.533C135.959 167.818 134.171 178.858 138.214 188C139.932 191.885 144.8 195.423 143.052 200C137.558 214.378 126.727 226.283 121.128 241C108.556 274.045 109.692 315.867 121 349z"/>
<path style="fill:#8aa5d0; stroke:none;" d="M144 128.428C115.051 132.585 99.5591 158.248 103.579 186C105.175 197.013 110.761 207.387 119.001 214.896C121.451 217.129 126.025 221.541 129.725 220.804C132.999 220.152 135.355 213.549 136.95 211C139.167 207.456 144.805 201.422 144.123 197C142.316 185.295 130.162 178.924 140.394 166.015C145.911 159.054 153.732 156.124 162 160.05C166.811 162.335 170.425 168.13 176 164.587C179.385 162.436 190.268 155.957 190.944 151.815C191.678 147.31 185.056 142.245 181.996 139.9C171.384 131.765 157.481 126.493 144 128.428M401 130.464C392.68 131.934 370.213 141.502 373.038 152.985C374.229 157.829 380.542 161.06 384 164.171C386.591 166.501 389.489 170.735 393 171.658C396.786 172.653 401.54 167.76 405 166.472C412.376 163.727 421.847 168.219 426.606 174.043C432.288 180.998 430.494 190.977 423.907 196.61C421.587 198.593 416.614 199.937 415.827 203.213C414.811 207.444 420.082 214.363 421.917 218C424.229 222.584 426.365 232.151 433.09 231.341C459.767 228.128 466.661 196.33 463.819 175C460.023 146.507 428.491 125.604 401 130.464z"/>
<path style="fill:#ffffff; stroke:none;" d="M130 132L131 133L130 132M169 132L170 133L169 132z"/>
<path style="fill:#0000ff; stroke:none;" d="M177 136L178 137L177 136z"/>
<path style="fill:#ffffff; stroke:none;" d="M178 137L179 138L178 137z"/>
<path style="fill:#0000ff; stroke:none;" d="M438 138L439 139L438 138z"/>
<path style="fill:#ffffff; stroke:none;" d="M182 140L183 141L182 140M442 141L443 142L442 141M113 145L114 146L113 145M104 192L105 193L104 192M108 201L109 202L108 201z"/>
<path style="fill:#0000ff; stroke:none;" d="M463 201L464 202L463 201z"/>
<path style="fill:#ffffff; stroke:none;" d="M109 202L110 203L109 202M459 210L460 211L459 210M125 219L126 220L125 219M450 221L451 222L450 221M449 222L450 223L449 222z"/>
<path style="fill:#0000ff; stroke:none;" d="M441 227L442 228L441 227z"/>
<path style="fill:#ffffff; stroke:none;" d="M438 229L439 230L438 229z"/>
<path style="fill:#0000ff; stroke:none;" d="M433 231L434 232L433 231z"/>
<path style="fill:#ffffff; stroke:none;" d="M112 287L112 301L113 301L112 287M443 300L443 309L444 309L443 300z"/>
<path style="fill:#384042; stroke:none;" d="M325.005 307.743C312.406 312.565 321.516 331.326 333.956 326.258C345.226 321.666 335.976 303.544 325.005 307.743z"/>
<path style="fill:#898a8e; stroke:none;" d="M217 309L217 310L222 310L217 309z"/>
<path style="fill:#384042; stroke:none;" d="M215.058 310.742C203.454 315.572 212.816 334.75 224.985 329.852C237.958 324.63 227.463 305.58 215.058 310.742z"/>
<path style="fill:#757a7a; stroke:none;" d="M210.333 315.667L210.667 316.333L210.333 315.667z"/>
<path style="fill:#727374; stroke:none;" d="M230.333 316.667L230.667 317.333L230.333 316.667z"/>
<path style="fill:#b2b2b4; stroke:none;" d="M339 316L339 320L340 320L339 316z"/>
<path style="fill:#959b9b; stroke:none;" d="M209 318L209 322L210 322L209 318z"/>
<path style="fill:#acaaab; stroke:none;" d="M231 318L231 323L232 323L231 318z"/>
<path style="fill:#7f8384; stroke:none;" d="M326 327L326 328L331 328L326 327z"/>
<path style="fill:#a6a7a9; stroke:none;" d="M223.667 330.333L224.333 330.667L223.667 330.333z"/>
<path style="fill:#b0c0d8; stroke:none;" d="M397 336L397 337L406 337L397 336z"/>
<path style="fill:#8aa5d0; stroke:none;" d="M388 337.428C362.036 341.188 341.893 364.124 340.09 390C339.43 399.461 342.079 410.193 345.425 418.999C346.926 422.95 348.984 427.924 354.09 427.342C382.593 424.095 413.649 400.115 428.731 377C433.063 370.36 442.418 354.771 438.396 346.418C436.662 342.818 430.377 342.09 427 340.922C414.895 336.737 400.762 335.58 388 337.428M145 342.465C139.424 343.468 124.073 345.02 121.067 350.278C117.099 357.219 125.044 371.979 128.309 378C138.763 397.283 158.413 412.154 178 421.294C183.831 424.015 192.307 428.743 198.957 427.617C203.812 426.794 204.969 421.871 206.78 418C212.133 406.558 213.194 395.21 209.699 383C202.528 357.948 170.8 337.823 145 342.465z"/>
<path style="fill:#374140; stroke:none;" d="M273.148 353.047C265.384 357.262 273.535 367.318 280.682 362.682C286.664 358.803 278.489 350.148 273.148 353.047z"/>
<path style="fill:#838d8c; stroke:none;" d="M269 356L269 360L270 360L269 356z"/>
<path style="fill:#adabac; stroke:none;" d="M283 358L283 361L284 361L283 358z"/>
<path style="fill:#ffffff; stroke:none;" d="M435 364L436 365L435 364z"/>
<path style="fill:#00ffff; stroke:none;" d="M124 370L125 371L124 370z"/>
<path style="fill:#ffffff; stroke:none;" d="M427 378L428 379L427 378M422 385L423 386L422 385M137 390L138 391L137 390M161 411L162 412L161 411M376 419L377 420L376 419M182 423L183 424L182 423z"/>
<path style="fill:#0000ff; stroke:none;" d="M194 427L195 428L194 427z"/>
</svg>
