<?xml version="1.0" standalone="yes"?>
<svg width="100" height="90">
<path style="fill:#000000; stroke:none;" d="M0 0L0 90L100 90L100 0L0 0z"/>
<path style="fill:#ffffff; stroke:none;" d="M20 51C20 58.4473 16.5489 77.0132 24.5185 81.142C29.5036 83.7246 38.4847 82 44 82C44 76.1633 42.1217 66.3117 45.179 61.1481C47.3077 57.5529 54.3213 56.5719 56.821 60.3179C60.3296 65.5759 54.5527 76.972 59.6034 80.9722C61.6893 82.6243 65.5309 81.999 68 82C86.5066 82.0071 82 65.1077 82 51C88.8096 49.9367 91.0708 42.8201 87.3966 37C81.5242 27.6979 70.7752 19.7592 63 12C59.6626 8.66949 56.1721 4.17728 51.0394 4.11343C45.934 4.04991 42.603 8.81732 39.3742 12.1127C31.4554 20.1948 18.1289 29.0314 12.9884 39.1736C9.95379 45.161 14.3911 49.8643 20 51z"/>
</svg>
