<?xml version="1.0" standalone="yes"?>
<svg width="100" height="90">
<path style="fill:#000000; stroke:none;" d="M0 0L0 90L100 90L100 0L0 0z"/>
<path style="fill:#ffffff; stroke:none;" d="M34 25L33 25C26.87 13.9065 9.46556 20.6028 11.3827 33C12.7467 41.8201 23.6693 46.1024 30.6597 40.517C34.9882 37.0584 34.986 32.0725 35 27L36 27C41.468 40.4691 59.6985 38.0185 65 26L66 26C63.7075 38.5348 78.8658 51.3535 87.3117 37.5355C96.6217 22.3038 76.2562 15.8011 66 25C65.9995 20.4769 66.2847 16.0599 63.713 12.0934C52.7351 -4.8383 34.0102 9.57934 34 25z"/>
<path style="fill:#000000; stroke:none;" d="M34.3333 25.6667L34.6667 26.3333L34.3333 25.6667z"/>
<path style="fill:#ffffff; stroke:none;" d="M38 39.6528C26.2095 43.357 29 58.4297 29 68C29 71.2213 28.0315 76.6852 30.179 79.3966C32.0339 81.7386 36.393 80.9988 39 81C47.6461 81.0039 59.5608 83.1436 67.8519 80.6821C71.6153 79.5648 70.9936 75.1311 71 72C71.0156 64.4226 73.1064 52.9416 69.6821 46.0039C65.1541 36.8299 46.6567 36.9331 38 39.6528M25 81L26 45C10.8994 45 4.99418 50.9183 5 66C5.00172 70.4469 4.56878 75.3154 8.2284 78.5664C12.4532 82.3194 19.7779 81 25 81M75 45L75 81C79.8208 81 87.6204 82.4632 91.5664 79.1065C95.0555 76.1384 94 70.0636 94 66C94 51.5115 90.4828 45.0017 75 45z"/>
</svg>
