<?xml version="1.0" standalone="yes"?>
<svg width="100" height="90">
<path style="fill:#000000; stroke:none;" d="M0 0L0 90L100 90L100 0L0 0z"/>
<path style="fill:#ffffff; stroke:none;" d="M19 38L76 38C75.6063 29.3846 72.5585 20.3643 70.4738 12C69.7317 9.02269 69.3804 4.89149 66.581 3.02778C61.8211 -0.141174 50.565 2 45 2C40.5429 2 32.0802 0.393417 28.5139 3.60339C21.9551 9.50682 21.0861 29.5549 19 38M42 53L42 82C35.3999 82.3647 32.9487 87.6298 41.0008 87.9807C45.9846 88.1979 53.0518 89.1262 57.8472 87.6821C63.9232 85.8524 56.8007 82.2137 54 82L54 53L60 53C60.0013 65.0292 65.9987 64.9753 66 53C75.6737 53 80.8756 52.9006 78 42L37 42C31.9896 42 23.8873 40.4608 19.2785 42.6034C15.5881 44.319 14.7636 51.3798 19.1481 52.6821C25.7835 54.6529 35.0851 53 42 53z"/>
</svg>
