<?xml version="1.0" standalone="yes"?>
<svg width="270" height="30">
<path style="fill:#000000; stroke:none;" d="M0 0L0 2L2 0L0 0z"/>
<path style="fill:#9a9a9a; stroke:none;" d="M2.66667 0.333334L3.33333 0.666666L2.66667 0.333334z"/>
<path style="fill:#cecece; stroke:none;" d="M261 5C255.538 2.70784 247.887 4 242 4L202 4L62 4C43.0102 4 24.1011 5.05434 5.91512 1.06327C2.86285 0.393423 -0.468888 2.4194 0.800926 5.8696C2.93399 11.6653 11.0582 5.18411 15.0008 5.01929C30.608 4.36684 46.3778 5 62 5L261 5z"/>
<path style="fill:#676767; stroke:none;" d="M5.66667 0.333334L6.33333 0.666666L5.66667 0.333334z"/>
<path style="fill:#000000; stroke:none;" d="M7 0C11.4506 4.54478 19.0357 3 25 3L72 3L262 3L262 6L75 6L21 6L0 7L0 30L270 30L270 0L7 0z"/>
<path style="fill:#ffffff; stroke:none;" d="M3.60262 3.15664C1.86984 4.31446 3.6642 7.00145 5.39738 5.84336C7.13016 4.68554 5.3358 1.99855 3.60262 3.15664z"/>
<path style="fill:#676767; stroke:none;" d="M9 3L9 4L261 4L261 5L9 5L9 6L262 6L262 3L9 3M0 6L1 7L0 6M8 6L9 7L8 6M6 8L7 9L6 8M4 15L5 16L4 15M55 15L56 16L55 15M107 15L108 16L107 15M158 15L159 16L158 15M210 15L211 16L210 15M261 15L262 16L261 15z"/>
<path style="fill:#cecece; stroke:none;" d="M4 16L4 20L5 20L4 16M55 16L55 20L56 20L55 16M107 16L107 19L108 19L107 16M158 16L158 20L159 20L158 16M210 16L210 20L211 20L210 16M261 16L261 20L262 20L261 16z"/>
<path style="fill:#676767; stroke:none;" d="M107 19L108 20L107 19z"/>
</svg>
